# xmcd
#
# Track frame offsets: 
#        182
#        15710
#        30437
#        46220
#        64032
#        75935
#        92450
#        102397
#        114245
#        130047
#        144157
#
# Disc length: 2204 seconds
#
# Revision: 6
# Processed by: cddbd v1.5PL3 Copyright (c) Steve Scherf et al.
# Submitted via: ExactAudioCopy v0.90b4
#
DISCID=75089a0b
DTITLE=Kenny Chesney - Me And You
DYEAR=1900
DGENRE=Country
TTITLE0=Back In My Arms Again
TTITLE1=Ain't That Love
TTITLE2=When I Close My Eyes
TTITLE3=Back Where I Come From
TTITLE4=Turn For The Worse
TTITLE5=Me And You
TTITLE6=(Turn Out The Light And) Love Me Tonight
TTITLE7=Another Friday Night
TTITLE8=No Small Miracle
TTITLE9=My Poor Old Heart
TTITLE10=It's Never Easy To Say Goodbye
EXTD=
EXTT0=
EXTT1=
EXTT2=
EXTT3=
EXTT4=
EXTT5=
EXTT6=
EXTT7=
EXTT8=
EXTT9=
EXTT10=
PLAYORDER=
